# xmcd CD database file
#
# Track frame offsets:
#	150
#	15328
#	28290
#	44600
#	60996
#
# Disc length: 1013 seconds
#
# Revision: 0
# Processed by: cddbd v1.5.2PL0 Copyright (c) Steve Scherf et al.
# Submitted via: CDex 1.70beta2
#
DISCID=3703f305
DTITLE=舟木一夫 - 舟木一夫８
DYEAR=1900
DGENRE=歌謡曲
TTITLE0=さんざしの花咲けば
TTITLE1=山のかなたに
TTITLE2=今日かぎりのワルツ
TTITLE3=たそがれの人
TTITLE4=北国にひとり
EXTD=
EXTT0=
EXTT1=
EXTT2=
EXTT3=
EXTT4=
PLAYORDER=
